<svg xmlns="http://www.w3.org/2000/svg" width="251.164" height="65.795" viewBox="0 0 251.164 65.795">
  <path id="taruni_logo" d="M621.427,116.745l1.39,2.166c-2.88,2.568-4.656,3.967-8.838,4.992a23.986,23.986,0,0,1-5.594.494,21.864,21.864,0,0,1-5.488-.631,11.439,11.439,0,0,1-4.379-2.158,10.1,10.1,0,0,1-2.968-4.156,18.586,18.586,0,0,1-1.132-6.926V58.675c.883-.053,1.768-.073,2.651-.073a17.324,17.324,0,0,1,4.665.539,6.652,6.652,0,0,1,2.818,1.541c.262.254.5.5.73.754a8.974,8.974,0,0,1,1.678,5.323l.008.726V74.61h11.915v2.819H606.968v33.593a17.915,17.915,0,0,0,.662,5.348,6.1,6.1,0,0,0,2.214,3.242,5.625,5.625,0,0,0,3.518.975c3.709-.207,5.546-1.735,8.065-3.842m46.064-34.531a22.2,22.2,0,0,1,1.22,7.857v34.254c-.076.006-.151.006-.226.01-.8.043-1.6.062-2.395.062h-.029l-.072,0a17.833,17.833,0,0,1-4.265-.461c-.108-.027-.222-.045-.328-.076a7.731,7.731,0,0,1-1.2-.461c-.17-.08-.334-.166-.495-.258a5.764,5.764,0,0,1-1.119-.822c-.006-.006-.009-.012-.015-.015-.256-.247-.491-.491-.715-.739A8.83,8.83,0,0,1,656.205,117l-1.505,1.557a22.2,22.2,0,0,1-3.433,2.88,16.892,16.892,0,0,1-4.648,2.116,23.875,23.875,0,0,1-6.677.849,16.8,16.8,0,0,1-4.962-.75,14.274,14.274,0,0,1-4.464-2.287,11.141,11.141,0,0,1-3.2-3.824,12.091,12.091,0,0,1-1.242-5.527,13.065,13.065,0,0,1,1.589-6.608,14.93,14.93,0,0,1,5.185-5.031,37.714,37.714,0,0,1,6.671-3.32,77.812,77.812,0,0,1,9.115-2.709l7.528-1.883V87.091a17.274,17.274,0,0,0-1.079-6.684,7.214,7.214,0,0,0-3.089-3.6,8.518,8.518,0,0,0-4.222-.965,9.2,9.2,0,0,0-4.113.91,8.946,8.946,0,0,0-2.8,2.244,12.245,12.245,0,0,0-1.731,2.727c-.366.8-.664,1.625-.948,2.459a5.5,5.5,0,0,1-1.065,1.8,3.859,3.859,0,0,1-1.577,1.069,7.7,7.7,0,0,1-2.737.412,5.368,5.368,0,0,1-2.562-.563,3.208,3.208,0,0,1-1.347-1.341,4.379,4.379,0,0,1-.437-1.95,6.439,6.439,0,0,1,.451-2.185,8.671,8.671,0,0,1,1.662-2.656,12.589,12.589,0,0,1,3.49-2.622,22.742,22.742,0,0,1,5.9-2.017,44.754,44.754,0,0,1,8.927-.805,53.644,53.644,0,0,1,5.569.242,23.725,23.725,0,0,1,5.378,1.176,13,13,0,0,1,4.514,2.672,12.438,12.438,0,0,1,3.141,4.805M656.162,94.546l-1.323.4a41.6,41.6,0,0,0-7.824,3.225,16.889,16.889,0,0,0-5.562,4.693,11.3,11.3,0,0,0-2.134,6.863,13.322,13.322,0,0,0,.963,5.33,7.216,7.216,0,0,0,2.786,3.34A7.69,7.69,0,0,0,647.2,119.5a9.407,9.407,0,0,0,3.693-.746,12.184,12.184,0,0,0,2.857-1.7,24.852,24.852,0,0,0,2.121-1.934l.29-.3Zm90.856,14.7h0v3.414l-.2.273a19.34,19.34,0,0,1-4.8,4.7,10.275,10.275,0,0,1-5.691,1.789,7.328,7.328,0,0,1-4.11-1.116,7.217,7.217,0,0,1-.8-.628c-1.9-1.475-3.583-5.7-3.461-10.307V88.415h0V82.143l-.009-.726a8.958,8.958,0,0,0-1.678-5.322c-.228-.252-.468-.5-.73-.754a6.633,6.633,0,0,0-2.817-1.541,17.212,17.212,0,0,0-4.666-.539c-.882,0-1.768.019-2.65.072v34.24a23.386,23.386,0,0,0,1.786,9.82,10.991,10.991,0,0,0,4.972,5.254,17.5,17.5,0,0,0,8.1,1.676,21.461,21.461,0,0,0,6.553-.939,16.147,16.147,0,0,0,4.763-2.457,40.128,40.128,0,0,0,5.38-5.471l0,.055.063-.071v.073l.008.73a8.948,8.948,0,0,0,1.678,5.32c.227.252.468.5.73.754a6.641,6.641,0,0,0,2.818,1.541,17.2,17.2,0,0,0,4.665.539c.881,0,1.769-.019,2.65-.072V73.261H747.018Zm82.3-21.369V82.2l-.01-.729a8.93,8.93,0,0,0-1.677-5.32c-.226-.254-.469-.5-.73-.754a6.637,6.637,0,0,0-2.817-1.541,17.212,17.212,0,0,0-4.667-.541c-.881,0-1.767.02-2.648.072v42.124l.007.73a8.963,8.963,0,0,0,1.678,5.32c.227.252.467.5.731.754A6.626,6.626,0,0,0,822,123.858a17.2,17.2,0,0,0,4.665.539c.882,0,1.769-.019,2.651-.072V87.874ZM711.1,75.542a6.366,6.366,0,0,0-1.777-1.346,8.628,8.628,0,0,0-3-.906,12.47,12.47,0,0,0-4.352.324,22.561,22.561,0,0,0-5.773,2.363,42.415,42.415,0,0,0-6.636,4.744l-1.686,1.426-.1-.043V73.389c-.884-.052-1.769-.072-2.651-.072-.714,0-1.457.029-2.2.1-.053.006-.106.006-.157.012-.379.039-.755.091-1.125.158l-.052.006c-.25.046-.491.111-.736.171-.132.034-.27.055-.4.094s-.235.078-.353.119a6.837,6.837,0,0,0-1.881.94,5.186,5.186,0,0,0-.582.482c-.263.252-.5.5-.731.754a8.952,8.952,0,0,0-1.671,5.1l-.014,1.838v41.234c.882.053,1.767.072,2.649.072a17.2,17.2,0,0,0,4.665-.539,6.633,6.633,0,0,0,2.819-1.541c.261-.252.5-.5.73-.754a8.951,8.951,0,0,0,1.677-5.32l.009-.73V101.341h0V91.579h.008c0-.053-.006-.1-.006-.154a12.9,12.9,0,0,1,1.87-6.858,8.205,8.205,0,0,1,1.8-2.158,9.163,9.163,0,0,1,3.7-2.021,8.965,8.965,0,0,1,3.584-.155,12.351,12.351,0,0,1,3.1.914c.8.367,1.568.787,2.331,1.229a5.473,5.473,0,0,0,1.983.652,3.864,3.864,0,0,0,1.891-.232,7.69,7.69,0,0,0,2.333-1.492,5.367,5.367,0,0,0,1.559-2.11,3.2,3.2,0,0,0,.131-1.9,4.4,4.4,0,0,0-.955-1.756m92.394-.531a17.505,17.505,0,0,0-8.1-1.676,21.361,21.361,0,0,0-6.553.939,16.2,16.2,0,0,0-4.764,2.455A40.314,40.314,0,0,0,778.7,82.2l0-.055-.062.071v-.075l-.009-.726a8.97,8.97,0,0,0-1.676-5.322c-.228-.252-.47-.5-.732-.754A6.627,6.627,0,0,0,773.4,73.8a17.2,17.2,0,0,0-4.665-.539c-.883,0-1.769.019-2.65.072V124.4H778.63V88.415h0V85l.2-.27a19.292,19.292,0,0,1,4.805-4.7,10.27,10.27,0,0,1,5.691-1.789,6.746,6.746,0,0,1,4.914,1.742c1.9,1.477,3.582,5.7,3.461,10.309v18.955h0v6.27l.01.73a8.951,8.951,0,0,0,1.677,5.32c.228.252.469.5.73.754a6.647,6.647,0,0,0,2.818,1.541,17.2,17.2,0,0,0,4.665.539c.882,0,1.768-.019,2.651-.072V90.085a23.4,23.4,0,0,0-1.787-9.821,10.982,10.982,0,0,0-4.971-5.253m42.09,43.593a5.881,5.881,0,0,1-.773,2.883,5.4,5.4,0,0,1-2.131,2.147,5.8,5.8,0,0,1-5.75,0,5.425,5.425,0,0,1-2.143-2.147,5.892,5.892,0,0,1-.764-2.883,5.807,5.807,0,0,1,.78-2.906,5.3,5.3,0,0,1,2.156-2.15,5.79,5.79,0,0,1,5.686,0,5.327,5.327,0,0,1,2.154,2.15,5.834,5.834,0,0,1,.785,2.906m-.973,0a5,5,0,0,0-.638-2.431,4.534,4.534,0,0,0-1.8-1.782,4.837,4.837,0,0,0-4.735,0,4.559,4.559,0,0,0-1.809,1.782,5.019,5.019,0,0,0-.645,2.431,4.893,4.893,0,0,0,.638,2.4,4.546,4.546,0,0,0,1.792,1.791,4.781,4.781,0,0,0,4.786,0A4.468,4.468,0,0,0,843.98,121a4.808,4.808,0,0,0,.629-2.4m-2.88,1.981.76,1.224h-1.22l-.551-.982a5.041,5.041,0,0,0-1.051-1.457,1.3,1.3,0,0,0-.81-.215h-.587v2.654h-1.01v-6.234h2.146a5.055,5.055,0,0,1,1.583.168,1.588,1.588,0,0,1,.785.6,1.659,1.659,0,0,1-.205,2.1,1.888,1.888,0,0,1-1.286.58,1.614,1.614,0,0,1,.532.324,7.664,7.664,0,0,1,.914,1.237m-1.051-2.551a.848.848,0,0,0,.314-.689.9.9,0,0,0-.143-.5,1.012,1.012,0,0,0-.424-.325,3.184,3.184,0,0,0-1.019-.105H838.27V118.3h1.222a1.955,1.955,0,0,0,1.186-.262" transform="translate(-594.418 -58.602)" fill="#58585b"/>
</svg>
