<svg xmlns="http://www.w3.org/2000/svg" width="16.789" height="11.61" viewBox="0 0 16.789 11.61">
  <g id="cart" transform="translate(-1139.81 -138.925)">
    <path id="Path_898" data-name="Path 898" d="M1155.787,147.759H1145.4l-2.876-7.832h-2.209a.5.5,0,1,1,0-1h2.91l2.876,7.831h9.688a.5.5,0,1,1,0,1" fill="#58595b"/>
    <path id="Path_899" data-name="Path 899" d="M1149.707,149.453a1.082,1.082,0,1,1-1.082-1.081,1.08,1.08,0,0,1,1.082,1.081" fill="#58595b"/>
    <path id="Path_900" data-name="Path 900" d="M1153.772,149.453a1.082,1.082,0,1,1-1.082-1.081,1.082,1.082,0,0,1,1.082,1.081" fill="#58595b"/>
    <path id="Path_901" data-name="Path 901" d="M1154.77,147h-8.225l-2.055-6h12.11Z" fill="#58595b"/>
  </g>
</svg>
