<svg xmlns="http://www.w3.org/2000/svg" width="49.819" height="48.516" viewBox="0 0 49.819 48.516">
  <g id="whatsapp_icon" transform="translate(-1130.181 -2400.157)">
    <rect id="Rectangle_115" data-name="Rectangle 115" width="49.819" height="48.516" rx="4" transform="translate(1130.181 2400.157)" fill="#09c15a"/>
    <path id="Path_907" data-name="Path 907" d="M1135.585,2435.72c.635-1.138,1.149-2.073,1.678-3,.8-1.4,1.573-2.826,2.438-4.19a7.919,7.919,0,0,0,1.307-5,16.434,16.434,0,1,1,24.445,13.586c-6.17,3.318-12.214,2.812-17.99-1.171a3.5,3.5,0,0,0-1.94-.608c-3.233.066-6.464.241-9.938.388m6.216-3.923c1.785,0,3.5-.046,5.216.029a2.778,2.778,0,0,1,1.61.587,13.036,13.036,0,1,0,5.9-22.368c-6.74,1.344-11.265,8.365-9.915,15.3a3.38,3.38,0,0,1-.29,2.01c-.764,1.535-1.68,2.992-2.517,4.447" fill="#fff" fill-rule="evenodd"/>
    <path id="Path_908" data-name="Path 908" d="M1149.014,2417.928a5.181,5.181,0,0,1,2.836-4.988c.744-.4,1.248-.329,1.675.454.62,1.136,1.282,2.251,1.975,3.341.528.833.307,1.387-.478,1.875-2.117,1.316-2.265,1.637-1.02,3.836.879,1.554,2.006,2.972,3.033,4.441a1.27,1.27,0,0,0,2.018.354c2.364-1.7,2.278-.893,3.246.96.38.735.869,1.414,1.217,2.161.521,1.114.133,2.112-1.065,2.317a8.259,8.259,0,0,1-3.275-.1,7.13,7.13,0,0,1-2.873-1.4,20.753,20.753,0,0,1-7.25-12.74,4.532,4.532,0,0,1-.039-.5" fill="#fff" fill-rule="evenodd"/>
  </g>
</svg>
