<svg xmlns="http://www.w3.org/2000/svg" width="12.36" height="11.085" viewBox="0 0 12.36 11.085">
  <path id="wishlist" d="M1174.253,139.459a3.316,3.316,0,0,1,3.97-.569,3.527,3.527,0,0,1,1.5,3.842,7.786,7.786,0,0,1-1.944,3.273,26.007,26.007,0,0,1-4.134,3.538c-.442-.333-.894-.661-1.336-1.007a17.1,17.1,0,0,1-3.862-3.895,5.035,5.035,0,0,1-.976-2.739,3.379,3.379,0,0,1,1.941-3.177,3.281,3.281,0,0,1,3.619.717,5.032,5.032,0,0,1,.618.679Z" transform="translate(-1167.474 -138.458)" fill="#58595b"/>
</svg>
